<svg width="2048" height="2048" xmlns="http://www.w3.org/2000/svg">

 <g>
  <title>background</title>
  <rect fill="none" id="canvas_background" height="402" width="582" y="-1" x="-1"/>
 </g>
 <g>
  <title>Layer 1</title>
  <path fill="#8777d9" id="svg_1" d="m1582.48,1627.13l120.816,-1353.38l1.58504,-17.752l-17.804,0l-1326.16,0l-17.8016,0l1.5815,17.752l120.689,1353.6l1.0063,11.2854l10.8721,3.01772l541.588,150.346l8.68465,0l543.064,-150.568l10.8697,-3.01418l1.00866,-11.289l0.00065,0.00206zm-557.36965,-1071.68206l395.75,0l-11.9126,138.491l-390.414,173.558l6.57638,31.226l366.391,0l-42.1748,483.261l-325.538,90.2587l-325.432,-90.1064l-20.6669,-231.443l134,0l10.7374,117.345l1.04173,11.374l11.0268,2.92914l186.463,49.539l8.49331,-0.06378l184.316,-51.2315l10.9784,-3.05315l0.96378,-11.315l18.4276,-216.732l1.50354,-17.6882l-17.7874,0l-202.743,0l-358.429,0l-12.1984,-139.091l377.014,-161.362l26.7614,-11.4685l-6.38623,-31.3536l-26.7614,0l-387.811,0l-11.8099,-133.074l397.936,0l1.68425,0l0.00004,0.00029z" class="fil0"/>
 </g>
</svg>