<svg width="512" height="512" xmlns="http://www.w3.org/2000/svg">

 <g>
  <title>background</title>
  <rect fill="none" id="canvas_background" height="402" width="582" y="-1" x="-1"/>
 </g>
 <g>
  <title>Layer 1</title>
  <path fill="#8777d9" stroke="null" id="svg_2" d="m1.512085,1.510971l0,508.978057l508.975844,0l0,-508.978057l-508.975844,0zm276.983744,396.958139c0,49.533739 -29.084903,72.142421 -71.463043,72.142421c-38.285275,0 -60.439194,-19.767245 -71.801625,-43.738002l38.967972,-23.518208c7.498607,13.29213 14.315623,24.538381 30.78888,24.538381c15.677699,0 25.678055,-6.134319 25.678055,-30.105076l0,-162.579363l47.829761,0l0,163.259848l0,0zm113.156272,72.142421c-44.421806,0 -73.164807,-21.13264 -87.139635,-48.852148l38.969079,-22.496928c10.224971,16.702298 23.629962,29.084903 47.14817,29.084903c19.768351,0 32.490645,-9.883069 32.490645,-23.628856c0,-16.361503 -12.950228,-22.152813 -34.876213,-31.811267l-11.928948,-5.111932c-34.537631,-14.656419 -57.374248,-33.175555 -57.374248,-72.142421c0,-35.901919 27.379819,-63.168877 69.982574,-63.168877c30.448085,0 52.261209,10.565767 67.940014,38.287488l-37.265101,23.857897c-8.179092,-14.656419 -17.040881,-20.448836 -30.787774,-20.448836c-13.974828,0 -22.836617,8.862896 -22.836617,20.448836c0,14.315623 8.861789,20.11136 29.425698,29.083797l11.927842,5.113039c40.673056,17.382783 63.508566,35.221435 63.508566,75.211793c0.002213,42.942444 -33.854933,66.573513 -79.184052,66.573513l0,0z"/>
 </g>
</svg>