<svg width="512" height="512" xmlns="http://www.w3.org/2000/svg">
 <g>
  <title>background</title>
  <rect x="-1" y="-1" width="514" height="514" id="canvas_background" fill="none"/>
 </g>

 <g>
  <title>Layer 1</title>
  <path stroke="null" d="m255.999995,7.775162c-140.546586,0 -254.499919,113.953333 -254.499919,254.499919c0,112.462122 72.914227,207.837458 174.052097,241.482646c12.722014,2.330265 17.366637,-5.529905 17.366637,-12.240353c0,-6.058291 -0.233126,-26.127001 -0.357393,-47.376751c-70.770363,15.377859 -85.729193,-30.010611 -85.729193,-30.010611c-11.587699,-29.389273 -28.255456,-37.218128 -28.255456,-37.218128c-23.129171,-15.781977 1.754658,-15.471309 1.754658,-15.471309c25.552388,1.770564 39.005095,26.220451 39.005095,26.220451c22.710141,38.89574 59.586285,27.649527 74.063453,21.125482c2.313364,-16.403315 8.899544,-27.649527 16.15478,-33.987172c-56.495005,-6.430597 -115.925707,-28.270865 -115.925707,-125.790065c0,-27.80511 9.925994,-50.483439 26.173726,-68.300422c-2.594209,-6.461912 -11.355071,-32.356285 2.516169,-67.383824c0,0 21.343198,-6.834715 69.993443,26.096183c20.286427,-5.669582 42.049153,-8.465602 63.687114,-8.559051c21.622552,0.093449 43.400189,2.920287 63.718429,8.589869c48.557789,-32.961716 69.931806,-26.096183 69.931806,-26.096183c13.917964,35.058855 5.157103,60.921912 2.547485,67.353006c16.309866,17.816983 26.158317,40.495808 26.158317,68.300422c0,97.767735 -59.524151,119.296837 -116.220967,125.603663c9.16498,7.890989 17.273188,23.362297 17.273188,47.097397c0,34.018487 -0.341984,61.450298 -0.341984,69.838357c0,6.772581 4.628717,14.694388 17.521723,12.209037c101.060824,-33.707321 173.91242,-129.082657 173.91242,-241.482646c0,-140.546586 -113.953333,-254.499919 -254.499919,-254.499919z" id="svg_1" fill="#8777d9"/>
 </g>
</svg>