<svg width="512" height="512" xmlns="http://www.w3.org/2000/svg">

 <g>
  <title>background</title>
  <rect fill="none" id="canvas_background" height="402" width="582" y="-1" x="-1"/>
 </g>
 <g>
  <title>Layer 1</title>
  <path id="svg_2" fill-rule="evenodd" fill="#8777d9" d="m332.051,176.916c24.504,0 45.362,8.772 62.607,25.707c14.518,14.82 21.474,36.289 21.474,64.714l0,163.317l-61.398,0l0,-108.273c0,-29.327 -1.511,-48.99 -3.928,-58.676c-2.717,-9.67 -7.258,-17.231 -13.912,-22.069c-6.653,-5.14 -14.818,-7.562 -24.493,-7.562c-12.403,0 -23.295,3.935 -32.366,12.399c-9.069,8.47 -15.121,19.966 -18.744,34.786c-1.822,7.849 -2.729,24.485 -2.729,50.202l0,99.192l-61.992,0l0,-247.688l61.992,0l0,25.706c14.215,-11.794 26.92,-19.961 38.416,-24.798c11.486,-4.535 22.983,-6.957 35.073,-6.957l0,0zm-306.35,335.084l460.89,0c13.912,0 25.409,-11.48 25.409,-25.403l0,-460.891c0,-14.215 -11.497,-25.706 -25.409,-25.706l-460.89,0c-14.215,0 -25.701,11.491 -25.701,25.706l0,460.891c0,13.922 11.486,25.403 25.701,25.403l0,0zm109.781,-430.65c10.883,0 20.265,3.93 28.128,11.794c7.862,7.864 11.486,17.539 11.486,28.732c0,10.886 -3.624,20.264 -11.486,28.123c-7.561,7.864 -16.943,11.497 -27.826,11.497s-20.265,-3.935 -28.127,-11.799c-7.862,-7.859 -11.789,-17.54 -11.789,-29.031c0,-10.886 3.926,-19.96 11.487,-27.825c7.862,-7.561 17.235,-11.491 28.127,-11.491l0,0zm-31.147,101.615l61.993,0l0,247.689l-61.993,0l0,-247.689z" clip-rule="evenodd"/>
 </g>
</svg>