<svg width="512" height="512" xmlns="http://www.w3.org/2000/svg">
 <g>
  <title>background</title>
  <rect x="-1" y="-1" width="514" height="514" id="canvas_background" fill="none"/>
 </g>

 <g>
  <title>Layer 1</title>
  <path stroke="null" d="m508.710526,99.253105c-18.580221,8.259017 -38.576276,13.830005 -59.557255,16.323098c21.422145,-12.824562 37.847839,-33.138664 45.593874,-57.371953c-20.037091,11.890934 -42.218453,20.519297 -65.846421,25.177178c-18.908532,-20.149951 -45.860625,-32.748797 -75.685423,-32.748797c-57.259098,0 -103.684005,46.424907 -103.684005,103.69426c0,8.115382 0.913108,16.025573 2.688029,23.627967c-86.181042,-4.329569 -162.594903,-45.604134 -213.739246,-108.341885c-8.925894,15.307395 -14.035196,33.118144 -14.035196,52.139531c0,35.970328 18.30321,67.713677 46.127376,86.304158c-16.989976,-0.543762 -32.984768,-5.211902 -46.968669,-12.978452c-0.01026,0.430906 -0.01026,0.872068 -0.01026,1.313234c0,50.231235 35.744612,92.131637 83.185228,101.673113c-8.700184,2.359718 -17.862049,3.631917 -27.321445,3.631917c-6.689292,0 -13.183648,-0.646357 -19.513849,-1.867256c13.204168,41.192485 51.493174,71.181438 96.861338,72.012471c-35.488121,27.813906 -80.189408,44.393495 -128.779102,44.393495c-8.361612,0 -16.620629,-0.492462 -24.736011,-1.45687c45.901665,29.434932 100.400914,46.589063 158.952726,46.589063c190.737115,0 295.026437,-157.998578 295.026437,-295.026437c0,-4.493725 -0.092335,-8.977195 -0.287271,-13.429879c20.252546,-14.589218 37.837584,-32.861653 51.729145,-53.657961l0,0.000005z" id="svg_1" fill="#8777d9"/>
 </g>
</svg>